<svg xmlns="http://www.w3.org/2000/svg" xmlns:xlink="http://www.w3.org/1999/xlink" width="1579" height="1245" viewBox="0 0 1579 1245" fill="none"><defs><rect id="path_0" x="0" y="0" width="1579" height="1245" /><rect id="path_1" x="0" y="0" width="543" height="83" /><rect id="path_2" x="0" y="0" width="543" height="83" /><rect id="path_3" x="0" y="0" width="543" height="83" /><rect id="path_4" x="0" y="0" width="83" height="497" /><rect id="path_5" x="0" y="0" width="83" height="497" /><rect id="path_6" x="0" y="0" width="83" height="497" /><rect id="path_7" x="0" y="0" width="83" height="497" /><rect id="path_8" x="0" y="0" width="83" height="497" /><rect id="path_9" x="0" y="0" width="83" height="497" /><rect id="path_10" x="0" y="0" width="83" height="497" /><rect id="path_11" x="0" y="0" width="351" height="83" /><rect id="path_12" x="0" y="0" width="83" height="317" /><rect id="path_13" x="0" y="0" width="83" height="317" /></defs><g opacity="1" transform="translate(0 0)  rotate(0 789.5 622.5)"><mask id="bg-mask-0" fill="white"><use xlink:href="#path_0"></use></mask><g mask="url(#bg-mask-0)" ><g opacity="1" transform="translate(183 136)  rotate(0 606.5 487)"><g opacity="1" transform="translate(334 0)  rotate(0 271.5 41.5)"><rect fill="#499DFC" opacity="1" transform="translate(0 0)  rotate(0 271.5 41.5)" x="0" y="0" width="543" height="83" rx="10" /><mask id="bg-mask-1" fill="white"><use xlink:href="#path_1"></use></mask><g mask="url(#bg-mask-1)" ><g opacity="1" transform="translate(20 15)  rotate(0 252 26.5)"><text><tspan x="0" y="41.76" font-size="36" line-height="0" fill="#FFFFFF" opacity="1" font-family="SourceHanSansCN-Regular" letter-spacing="0" >中国信息通信科技集团有限公司</tspan></text></g><path id="直线 1"  style="fill:#000000" transform="translate(272 83)  rotate(0 0.0005 24.454210322347905)" opacity="1" d="" /><path  id="直线 1" style="stroke:#A6A6A6; stroke-width:1; stroke-opacity:1; stroke-dasharray:0 0" transform="translate(272 83)  rotate(0 0.0005 24.454210322347905)" d="M0,0L0,48.91 " /></g></g><g opacity="1" transform="translate(334 130)  rotate(0 271.5 41.5)"><rect fill="#499DFC" opacity="1" transform="translate(0 0)  rotate(0 271.5 41.5)" x="0" y="0" width="543" height="83" rx="10" /><mask id="bg-mask-2" fill="white"><use xlink:href="#path_2"></use></mask><g mask="url(#bg-mask-2)" ><g opacity="1" transform="translate(20 15)  rotate(0 252 26.5)"><text><tspan x="0" y="41.76" font-size="36" line-height="0" fill="#FFFFFF" opacity="1" font-family="SourceHanSansCN-Regular" letter-spacing="0" >大唐实创（北京）投资有限公司</tspan></text></g></g></g><path id="直线 1"  style="fill:#93C4FD" transform="translate(606 83)  rotate(0 0.0005 23.5)" opacity="1" d="" /><path  id="直线 1" style="stroke:#93C4FD; stroke-width:5; stroke-opacity:1; stroke-dasharray:0 0" transform="translate(606 83)  rotate(0 0.0005 23.5)" d="M0,0L0,47 " /><g opacity="1" transform="translate(334 260)  rotate(0 271.5 41.5)"> fill="#93C4FD" opacity="1" transform="translate(0 0)  rotate(0 271.5 41.5)" stroke="#93C4FD" stroke-width="5" stroke-opacity="1"<rect fill="#93C4FD" opacity="1" transform="translate(0 0)  rotate(0 271.5 41.5)" stroke="#93C4FD" stroke-width="5" stroke-opacity="1" x="0" y="0" width="543" height="83" rx="10" /><mask id="bg-mask-3" fill="white"><use xlink:href="#path_3"></use></mask><g mask="url(#bg-mask-3)" ><g opacity="1" transform="translate(56 15)  rotate(0 216 26.5)"><text><tspan x="0" y="41.76" font-size="36" line-height="0" fill="#FFFFFF" opacity="1" font-family="SourceHanSansCN-Regular" letter-spacing="0" >北京大唐物业管理有限公司</tspan></text></g></g></g><path id="直线 1"  style="fill:#93C4FD" transform="translate(606 213)  rotate(0 0.0005 23.5)" opacity="1" d="" /><path  id="直线 1" style="stroke:#93C4FD; stroke-width:5; stroke-opacity:1; stroke-dasharray:0 0" transform="translate(606 213)  rotate(0 0.0005 23.5)" d="M0,0L0,47 " /><path id="直线 1"  style="fill:#93C4FD" transform="translate(42 430)  rotate(0 0.0005 23.5)" opacity="1" d="" /><path  id="直线 1" style="stroke:#93C4FD; stroke-width:5; stroke-opacity:1; stroke-dasharray:0 0" transform="translate(42 430)  rotate(0 0.0005 23.5)" d="M0,0L0,47 " /><path id="直线 1"  style="fill:#93C4FD" transform="translate(165 430)  rotate(0 0.0005 23.5)" opacity="1" d="" /><path  id="直线 1" style="stroke:#93C4FD; stroke-width:5; stroke-opacity:1; stroke-dasharray:0 0" transform="translate(165 430)  rotate(0 0.0005 23.5)" d="M0,0L0,47 " /><path id="直线 1"  style="fill:#93C4FD" transform="translate(288 430)  rotate(0 0.0005 23.5)" opacity="1" d="" /><path  id="直线 1" style="stroke:#93C4FD; stroke-width:5; stroke-opacity:1; stroke-dasharray:0 0" transform="translate(288 430)  rotate(0 0.0005 23.5)" d="M0,0L0,47 " /><path id="直线 1"  style="fill:#93C4FD" transform="translate(410 430)  rotate(0 0.0005 23.5)" opacity="1" d="" /><path  id="直线 1" style="stroke:#93C4FD; stroke-width:5; stroke-opacity:1; stroke-dasharray:0 0" transform="translate(410 430)  rotate(0 0.0005 23.5)" d="M0,0L0,47 " /><path id="直线 1"  style="fill:#93C4FD" transform="translate(533 430)  rotate(0 0.0005 23.5)" opacity="1" d="" /><path  id="直线 1" style="stroke:#93C4FD; stroke-width:5; stroke-opacity:1; stroke-dasharray:0 0" transform="translate(533 430)  rotate(0 0.0005 23.5)" d="M0,0L0,47 " /><path id="直线 1"  style="fill:#93C4FD" transform="translate(657 430)  rotate(0 0.0005 23.5)" opacity="1" d="" /><path  id="直线 1" style="stroke:#93C4FD; stroke-width:5; stroke-opacity:1; stroke-dasharray:0 0" transform="translate(657 430)  rotate(0 0.0005 23.5)" d="M0,0L0,47 " /><path id="直线 1"  style="fill:#93C4FD" transform="translate(779 430)  rotate(0 0.0005 23.5)" opacity="1" d="" /><path  id="直线 1" style="stroke:#93C4FD; stroke-width:5; stroke-opacity:1; stroke-dasharray:0 0" transform="translate(779 430)  rotate(0 0.0005 23.5)" d="M0,0L0,47 " /><path id="直线 1"  style="fill:#93C4FD" transform="translate(904 611)  rotate(0 0.0005 24.5)" opacity="1" d="" /><path  id="直线 1" style="stroke:#93C4FD; stroke-width:5; stroke-opacity:1; stroke-dasharray:0 0" transform="translate(904 611)  rotate(0 0.0005 24.5)" d="M0,0L0,49 " /><path id="直线 1"  style="fill:#93C4FD" transform="translate(1173 611)  rotate(0 0.0005 24.5)" opacity="1" d="" /><path  id="直线 1" style="stroke:#93C4FD; stroke-width:5; stroke-opacity:1; stroke-dasharray:0 0" transform="translate(1173 611)  rotate(0 0.0005 24.5)" d="M0,0L0,49 " /><path id="直线 1"  style="fill:#93C4FD" transform="translate(1037 430)  rotate(0 0.0005 23.5)" opacity="1" d="" /><path  id="直线 1" style="stroke:#93C4FD; stroke-width:5; stroke-opacity:1; stroke-dasharray:0 0" transform="translate(1037 430)  rotate(0 0.0005 23.5)" d="M0,0L0,47 " /><g opacity="1" transform="translate(0 477)  rotate(0 41.5 248.5)"> fill="#93C4FD" opacity="1" transform="translate(0 0)  rotate(0 41.5 248.5)" stroke="#93C4FD" stroke-width="5" stroke-opacity="1"<rect fill="#93C4FD" opacity="1" transform="translate(0 0)  rotate(0 41.5 248.5)" stroke="#93C4FD" stroke-width="5" stroke-opacity="1" x="0" y="0" width="83" height="497" rx="10" /><mask id="bg-mask-4" fill="white"><use xlink:href="#path_4"></use></mask><g mask="url(#bg-mask-4)" ><g opacity="1" transform="translate(10 92)  rotate(0 31.5 157)"><text><tspan x="13.5" y="120.56799999999998" font-size="36" line-height="0" fill="#FFFFFF" opacity="1" font-family="SourceHanSansCN-Regular" letter-spacing="0"  >办</tspan><tspan x="13.5" y="172.69599999999997" font-size="36" line-height="0" fill="#FFFFFF" opacity="1" font-family="SourceHanSansCN-Regular" letter-spacing="0"  >公</tspan><tspan x="13.5" y="224.82399999999996" font-size="36" line-height="0" fill="#FFFFFF" opacity="1" font-family="SourceHanSansCN-Regular" letter-spacing="0" >室</tspan></text></g></g></g><g opacity="1" transform="translate(123 477)  rotate(0 41.5 248.5)"> fill="#93C4FD" opacity="1" transform="translate(0 0)  rotate(0 41.5 248.5)" stroke="#93C4FD" stroke-width="5" stroke-opacity="1"<rect fill="#93C4FD" opacity="1" transform="translate(0 0)  rotate(0 41.5 248.5)" stroke="#93C4FD" stroke-width="5" stroke-opacity="1" x="0" y="0" width="83" height="497" rx="10" /><mask id="bg-mask-5" fill="white"><use xlink:href="#path_5"></use></mask><g mask="url(#bg-mask-5)" ><g opacity="1" transform="translate(10 92)  rotate(0 31.5 157)"><text><tspan x="13.5" y="68.44" font-size="36" line-height="0" fill="#FFFFFF" opacity="1" font-family="SourceHanSansCN-Regular" letter-spacing="0"  >人</tspan><tspan x="13.5" y="120.56800000000001" font-size="36" line-height="0" fill="#FFFFFF" opacity="1" font-family="SourceHanSansCN-Regular" letter-spacing="0"  >力</tspan><tspan x="13.5" y="172.696" font-size="36" line-height="0" fill="#FFFFFF" opacity="1" font-family="SourceHanSansCN-Regular" letter-spacing="0"  >资</tspan><tspan x="13.5" y="224.824" font-size="36" line-height="0" fill="#FFFFFF" opacity="1" font-family="SourceHanSansCN-Regular" letter-spacing="0"  >源</tspan><tspan x="13.5" y="276.952" font-size="36" line-height="0" fill="#FFFFFF" opacity="1" font-family="SourceHanSansCN-Regular" letter-spacing="0" >部</tspan></text></g></g></g><g opacity="1" transform="translate(246 477)  rotate(0 41.5 248.5)"> fill="#93C4FD" opacity="1" transform="translate(0 0)  rotate(0 41.5 248.5)" stroke="#93C4FD" stroke-width="5" stroke-opacity="1"<rect fill="#93C4FD" opacity="1" transform="translate(0 0)  rotate(0 41.5 248.5)" stroke="#93C4FD" stroke-width="5" stroke-opacity="1" x="0" y="0" width="83" height="497" rx="10" /><mask id="bg-mask-6" fill="white"><use xlink:href="#path_6"></use></mask><g mask="url(#bg-mask-6)" ><g opacity="1" transform="translate(10 92)  rotate(0 31.5 157)"><text><tspan x="13.5" y="68.44" font-size="36" line-height="0" fill="#FFFFFF" opacity="1" font-family="SourceHanSansCN-Regular" letter-spacing="0"  >财</tspan><tspan x="13.5" y="120.56800000000001" font-size="36" line-height="0" fill="#FFFFFF" opacity="1" font-family="SourceHanSansCN-Regular" letter-spacing="0"  >务</tspan><tspan x="13.5" y="172.696" font-size="36" line-height="0" fill="#FFFFFF" opacity="1" font-family="SourceHanSansCN-Regular" letter-spacing="0"  >资</tspan><tspan x="13.5" y="224.824" font-size="36" line-height="0" fill="#FFFFFF" opacity="1" font-family="SourceHanSansCN-Regular" letter-spacing="0"  >产</tspan><tspan x="13.5" y="276.952" font-size="36" line-height="0" fill="#FFFFFF" opacity="1" font-family="SourceHanSansCN-Regular" letter-spacing="0" >部</tspan></text></g></g></g><g opacity="1" transform="translate(369 477)  rotate(0 41.5 248.5)"> fill="#93C4FD" opacity="1" transform="translate(0 0)  rotate(0 41.5 248.5)" stroke="#93C4FD" stroke-width="5" stroke-opacity="1"<rect fill="#93C4FD" opacity="1" transform="translate(0 0)  rotate(0 41.5 248.5)" stroke="#93C4FD" stroke-width="5" stroke-opacity="1" x="0" y="0" width="83" height="497" rx="10" /><mask id="bg-mask-7" fill="white"><use xlink:href="#path_7"></use></mask><g mask="url(#bg-mask-7)" ><g opacity="1" transform="translate(10 92)  rotate(0 31.5 157)"><text><tspan x="13.5" y="68.44" font-size="36" line-height="0" fill="#FFFFFF" opacity="1" font-family="SourceHanSansCN-Regular" letter-spacing="0"  >战</tspan><tspan x="13.5" y="120.56800000000001" font-size="36" line-height="0" fill="#FFFFFF" opacity="1" font-family="SourceHanSansCN-Regular" letter-spacing="0"  >略</tspan><tspan x="13.5" y="172.696" font-size="36" line-height="0" fill="#FFFFFF" opacity="1" font-family="SourceHanSansCN-Regular" letter-spacing="0"  >运</tspan><tspan x="13.5" y="224.824" font-size="36" line-height="0" fill="#FFFFFF" opacity="1" font-family="SourceHanSansCN-Regular" letter-spacing="0"  >营</tspan><tspan x="13.5" y="276.952" font-size="36" line-height="0" fill="#FFFFFF" opacity="1" font-family="SourceHanSansCN-Regular" letter-spacing="0" >部</tspan></text></g></g></g><g opacity="1" transform="translate(492 477)  rotate(0 41.5 248.5)"> fill="#93C4FD" opacity="1" transform="translate(0 0)  rotate(0 41.5 248.5)" stroke="#93C4FD" stroke-width="5" stroke-opacity="1"<rect fill="#93C4FD" opacity="1" transform="translate(0 0)  rotate(0 41.5 248.5)" stroke="#93C4FD" stroke-width="5" stroke-opacity="1" x="0" y="0" width="83" height="497" rx="10" /><mask id="bg-mask-8" fill="white"><use xlink:href="#path_8"></use></mask><g mask="url(#bg-mask-8)" ><g opacity="1" transform="translate(10 92)  rotate(0 31.5 157)"><text><tspan x="13.5" y="68.44" font-size="36" line-height="0" fill="#FFFFFF" opacity="1" font-family="SourceHanSansCN-Regular" letter-spacing="0"  >质</tspan><tspan x="13.5" y="120.56800000000001" font-size="36" line-height="0" fill="#FFFFFF" opacity="1" font-family="SourceHanSansCN-Regular" letter-spacing="0"  >量</tspan><tspan x="13.5" y="172.696" font-size="36" line-height="0" fill="#FFFFFF" opacity="1" font-family="SourceHanSansCN-Regular" letter-spacing="0"  >管</tspan><tspan x="13.5" y="224.824" font-size="36" line-height="0" fill="#FFFFFF" opacity="1" font-family="SourceHanSansCN-Regular" letter-spacing="0"  >理</tspan><tspan x="13.5" y="276.952" font-size="36" line-height="0" fill="#FFFFFF" opacity="1" font-family="SourceHanSansCN-Regular" letter-spacing="0" >部</tspan></text></g></g></g><g opacity="1" transform="translate(615 477)  rotate(0 41.5 248.5)"> fill="#93C4FD" opacity="1" transform="translate(0 0)  rotate(0 41.5 248.5)" stroke="#93C4FD" stroke-width="5" stroke-opacity="1"<rect fill="#93C4FD" opacity="1" transform="translate(0 0)  rotate(0 41.5 248.5)" stroke="#93C4FD" stroke-width="5" stroke-opacity="1" x="0" y="0" width="83" height="497" rx="10" /><mask id="bg-mask-9" fill="white"><use xlink:href="#path_9"></use></mask><g mask="url(#bg-mask-9)" ><g opacity="1" transform="translate(10 92)  rotate(0 31.5 157)"><text><tspan x="13.5" y="68.44" font-size="36" line-height="0" fill="#FFFFFF" opacity="1" font-family="SourceHanSansCN-Regular" letter-spacing="0"  >市</tspan><tspan x="13.5" y="120.56800000000001" font-size="36" line-height="0" fill="#FFFFFF" opacity="1" font-family="SourceHanSansCN-Regular" letter-spacing="0"  >场</tspan><tspan x="13.5" y="172.696" font-size="36" line-height="0" fill="#FFFFFF" opacity="1" font-family="SourceHanSansCN-Regular" letter-spacing="0"  >发</tspan><tspan x="13.5" y="224.824" font-size="36" line-height="0" fill="#FFFFFF" opacity="1" font-family="SourceHanSansCN-Regular" letter-spacing="0"  >展</tspan><tspan x="13.5" y="276.952" font-size="36" line-height="0" fill="#FFFFFF" opacity="1" font-family="SourceHanSansCN-Regular" letter-spacing="0" >部</tspan></text></g></g></g><g opacity="1" transform="translate(738 477)  rotate(0 41.5 248.5)"> fill="#93C4FD" opacity="1" transform="translate(0 0)  rotate(0 41.5 248.5)" stroke="#93C4FD" stroke-width="5" stroke-opacity="1"<rect fill="#93C4FD" opacity="1" transform="translate(0 0)  rotate(0 41.5 248.5)" stroke="#93C4FD" stroke-width="5" stroke-opacity="1" x="0" y="0" width="83" height="497" rx="10" /><mask id="bg-mask-10" fill="white"><use xlink:href="#path_10"></use></mask><g mask="url(#bg-mask-10)" ><g opacity="1" transform="translate(10 92)  rotate(0 31.5 157)"><text><tspan x="13.5" y="94.50399999999999" font-size="36" line-height="0" fill="#FFFFFF" opacity="1" font-family="SourceHanSansCN-Regular" letter-spacing="0"  >各</tspan><tspan x="13.5" y="146.632" font-size="36" line-height="0" fill="#FFFFFF" opacity="1" font-family="SourceHanSansCN-Regular" letter-spacing="0"  >项</tspan><tspan x="13.5" y="198.76" font-size="36" line-height="0" fill="#FFFFFF" opacity="1" font-family="SourceHanSansCN-Regular" letter-spacing="0"  >目</tspan><tspan x="13.5" y="250.88799999999998" font-size="36" line-height="0" fill="#FFFFFF" opacity="1" font-family="SourceHanSansCN-Regular" letter-spacing="0" >部</tspan></text></g></g></g><g opacity="1" transform="translate(862 477)  rotate(0 175.5 41.5)"> fill="#93C4FD" opacity="1" transform="translate(0 0)  rotate(0 175.5 41.5)" stroke="#93C4FD" stroke-width="5" stroke-opacity="1"<rect fill="#93C4FD" opacity="1" transform="translate(0 0)  rotate(0 175.5 41.5)" stroke="#93C4FD" stroke-width="5" stroke-opacity="1" x="0" y="0" width="351" height="83" rx="10" /><mask id="bg-mask-11" fill="white"><use xlink:href="#path_11"></use></mask><g mask="url(#bg-mask-11)" ><g opacity="1" transform="translate(104 15)  rotate(0 72 26.5)"><text><tspan x="0" y="41.76" font-size="36" line-height="0" fill="#FFFFFF" opacity="1" font-family="SourceHanSansCN-Regular" letter-spacing="0" >各分公司</tspan></text></g></g></g><g opacity="1" transform="translate(860 657)  rotate(0 41.5 158.5)"> fill="#93C4FD" opacity="1" transform="translate(0 0)  rotate(0 41.5 158.5)" stroke="#93C4FD" stroke-width="5" stroke-opacity="1"<rect fill="#93C4FD" opacity="1" transform="translate(0 0)  rotate(0 41.5 158.5)" stroke="#93C4FD" stroke-width="5" stroke-opacity="1" x="0" y="0" width="83" height="317" rx="10" /><mask id="bg-mask-12" fill="white"><use xlink:href="#path_12"></use></mask><g mask="url(#bg-mask-12)" ><g opacity="1" transform="translate(10 2)  rotate(0 31.5 157)"><text><tspan x="13.5" y="94.50399999999999" font-size="36" line-height="0" fill="#FFFFFF" opacity="1" font-family="SourceHanSansCN-Regular" letter-spacing="0"  >各</tspan><tspan x="13.5" y="146.632" font-size="36" line-height="0" fill="#FFFFFF" opacity="1" font-family="SourceHanSansCN-Regular" letter-spacing="0"  >项</tspan><tspan x="13.5" y="198.76" font-size="36" line-height="0" fill="#FFFFFF" opacity="1" font-family="SourceHanSansCN-Regular" letter-spacing="0"  >目</tspan><tspan x="13.5" y="250.88799999999998" font-size="36" line-height="0" fill="#FFFFFF" opacity="1" font-family="SourceHanSansCN-Regular" letter-spacing="0" >部</tspan></text></g></g></g><g opacity="1" transform="translate(1130 657)  rotate(0 41.5 158.5)"> fill="#93C4FD" opacity="1" transform="translate(0 0)  rotate(0 41.5 158.5)" stroke="#93C4FD" stroke-width="5" stroke-opacity="1"<rect fill="#93C4FD" opacity="1" transform="translate(0 0)  rotate(0 41.5 158.5)" stroke="#93C4FD" stroke-width="5" stroke-opacity="1" x="0" y="0" width="83" height="317" rx="10" /><mask id="bg-mask-13" fill="white"><use xlink:href="#path_13"></use></mask><g mask="url(#bg-mask-13)" ><g opacity="1" transform="translate(38.5 1.5)  rotate(90 28 157.5)"><text><tspan x="2.9800000000000004" y="183.66" font-size="60" line-height="0" fill="#FFFFFF" opacity="1" font-family="SourceHanSansCN-Regular" letter-spacing="0" >...</tspan></text></g></g></g><path id="直线 2"  style="fill:#CCCCCC" transform="translate(901 613)  rotate(0 137.49157394290614 0.0005)" opacity="1" d="" /><path  id="直线 2" style="stroke:#93C4FD; stroke-width:5; stroke-opacity:1; stroke-dasharray:0 0" transform="translate(901 613)  rotate(0 137.49157394290614 0.0005)" d="M0,0L274.98,0 " /><path id="直线 1"  style="fill:#93C4FD" transform="translate(1038 560)  rotate(0 0.0005 26.5)" opacity="1" d="" /><path  id="直线 1" style="stroke:#93C4FD; stroke-width:5; stroke-opacity:1; stroke-dasharray:0 0" transform="translate(1038 560)  rotate(0 0.0005 26.5)" d="M0,0L0,53 " /><path id="直线 3"  style="fill:#CCCCCC" transform="translate(39 430)  rotate(0 500.5 0.0005)" opacity="1" d="" /><path  id="直线 3" style="stroke:#93C4FD; stroke-width:5; stroke-opacity:1; stroke-dasharray:0 0" transform="translate(39 430)  rotate(0 500.5 0.0005)" d="M0,0L1001,0 " /><path id="直线 1"  style="fill:#93C4FD" transform="translate(605 343)  rotate(0 0.0005 43.5)" opacity="1" d="" /><path  id="直线 1" style="stroke:#93C4FD; stroke-width:5; stroke-opacity:1; stroke-dasharray:0 0" transform="translate(605 343)  rotate(0 0.0005 43.5)" d="M0,0L0,87 " /></g></g></g></svg>